# xmcd
# 
# Track frame offsets:
#     150
#     15955
#     32530
#     48743
#     77418
#     90668
#     113080
#     140105
#     157943
#     176818
#     194038
#     206168
# 
# Disc length: 3017
# 
# Revision: 0
# Processed by: cddbd v1.5.2PL0 Copyright (c) Steve Scherf et al.
# Submitted via: fre:ac v1.0.31
# 
DISCID=9d0bc70c
DTITLE=蕭邦享 Pang-Hsing Hsiao and 高雄市實驗交響樂團 Kaohsiung City Symphony Orchestra - 鄉土的愛 Love For Our Country
DYEAR=1995
DGENRE=Folk
TTITLE0=滿山春色 Springtime Hills
TTITLE1=港都夜雨 Rainy Night in Port
TTITLE2=淡水暮色 Twilight on The Tamsui River
TTITLE3=落花淚影 Sorrow of Fallen Flower
TTITLE4=桃花過渡 Peach Blossom Takes The Ferry
TTITLE5=思慕的人 Someone in My Dream
TTITLE6=望春風 Adolesent Longing
TTITLE7=舊情綿綿 Unchange Love
TTITLE8=白牡丹 The White Peony
TTITLE9=補破網 Mending An Old Net
TTITLE10=天黑黑 Ominous Clouds
TTITLE11=秋風夜雨 Autumn Wings and Evening Rains
EXTD=
EXTT0=
EXTT1=
EXTT2=
EXTT3=
EXTT4=
EXTT5=
EXTT6=
EXTT7=
EXTT8=
EXTT9=
EXTT10=
EXTT11=
PLAYORDER=
